<svg width="56" height="56" viewBox="0 0 56 56" fill="none" xmlns="http://www.w3.org/2000/svg">
<path fill-rule="evenodd" clip-rule="evenodd" d="M25.853 4.54787C24.5037 4.78066 25.0514 4.27865 12.992 16.3378C2.56739 26.7622 1.81958 27.5339 1.52148 28.1752C0.964354 29.3739 0.987769 30.6253 1.58837 31.7502C1.76414 32.0795 4.61573 34.9961 10.6319 41.0002C20.3355 50.6843 19.775 50.1939 21.264 50.3021C22.1211 50.3644 22.9836 50.1317 23.7203 49.6395C24.0109 49.4453 29.2139 44.3113 35.2823 38.2303C45.6934 27.7982 46.3335 27.1357 46.6223 26.4917L46.9286 25.8092V16.7267C46.9286 6.55432 46.9704 7.13759 46.164 6.06922C45.7493 5.51975 44.8893 4.87579 44.2559 4.64048C43.9605 4.53065 42.0724 4.498 35.1161 4.48225C30.294 4.47133 26.1256 4.50094 25.853 4.54787ZM50.8661 17.9156C50.8661 27.3412 50.8641 27.4344 50.644 28.0365C50.4315 28.6177 49.9323 29.1344 39.2449 39.8348L28.0681 51.0255L28.4908 51.4074C29.7005 52.5003 31.3849 52.7711 32.8828 52.1135C33.292 51.9338 35.2821 49.9972 43.7597 41.529C51.0696 34.2271 54.2075 31.0246 54.3785 30.6917C54.865 29.7441 54.8717 29.5914 54.8367 20.2442L54.8036 11.4242L54.4787 10.7417C54.2999 10.3663 53.9456 9.85111 53.6912 9.59669C53.1384 9.04387 52.1484 8.55436 51.4053 8.46637L50.8661 8.40242V17.9156ZM37.3324 12.6516C37.9047 12.8919 38.4694 13.447 38.8055 14.0999C38.9909 14.4602 39.0478 14.7437 39.0478 15.3092C39.0478 18.4537 34.7326 19.3515 33.4279 16.4786C33.1622 15.8933 33.1605 14.7288 33.4246 14.1474C34.1201 12.6161 35.7564 11.9897 37.3324 12.6516Z" fill="#848497"/>
</svg>
