<svg width="56" height="56" viewBox="0 0 56 56" fill="none" xmlns="http://www.w3.org/2000/svg">
<path fill-rule="evenodd" clip-rule="evenodd" d="M24.4001 0.132736C23.7035 0.497719 23.6457 0.715158 23.4023 3.89535C23.2771 5.53008 23.1242 6.91162 23.0624 6.96551C23.0007 7.0194 22.5 7.1897 21.9498 7.34387C20.6678 7.70323 18.563 8.58774 17.472 9.22543L16.6203 9.72333L14.4162 7.83514C13.2041 6.79658 12.0212 5.86706 11.7876 5.7694C11.0474 5.46019 10.7523 5.66362 8.17264 8.26239C5.69891 10.7545 5.47897 11.069 5.73992 11.7405C5.80469 11.9072 6.73684 13.0673 7.81141 14.3186L9.76499 16.5936L9.387 17.2079C8.58076 18.5182 7.13296 22.0934 7.13296 22.7741C7.13296 22.8816 7.06656 23.0106 6.98541 23.0608C6.90426 23.1109 5.5121 23.2542 3.8915 23.3791C0.741313 23.6219 0.518872 23.6812 0.164017 24.3718C-0.0546724 24.7974 -0.0546724 31.1743 0.164017 31.5999C0.519373 32.2914 0.738938 32.3495 3.92 32.5948C5.55611 32.7209 6.93902 32.8749 6.99329 32.9369C7.04743 32.9991 7.21798 33.5 7.37215 34.0502C7.73201 35.334 8.61627 37.4374 9.25609 38.5321L9.75648 39.3881L7.80716 41.658C6.73496 42.9065 5.80469 44.0645 5.73992 44.2312C5.47884 44.9029 5.69866 45.217 8.17802 47.7147C10.6861 50.2416 11.086 50.5264 11.7593 50.2658C11.9313 50.1993 13.0961 49.2678 14.348 48.196L16.624 46.2471L17.4949 46.7493C18.6955 47.4415 20.4278 48.177 21.7991 48.5768C22.4321 48.7614 22.9984 48.9533 23.0574 49.0033C23.1166 49.0533 23.2705 50.4354 23.3996 52.0745C23.6506 55.2599 23.7095 55.4811 24.4001 55.836C24.8257 56.0547 31.2026 56.0547 31.6282 55.836C32.3232 55.4789 32.3827 55.2552 32.6209 52.109C32.7433 50.4923 32.8816 49.1077 32.9282 49.0323C32.9747 48.9571 33.2189 48.8568 33.4708 48.8095C33.7227 48.7623 34.3985 48.5536 34.9727 48.3459L36.0165 47.9682V42.4635V36.9589L35.5789 37.2862C35.3382 37.4664 34.9583 37.7501 34.7349 37.9169C34.0647 38.4169 32.0203 39.3446 30.9525 39.6333C29.6226 39.9928 26.6477 40.029 25.343 39.7017C20.8783 38.5814 17.5149 35.2748 16.3698 30.88C16.0131 29.5112 15.9331 27.45 16.1814 26.029C17.0099 21.2886 20.3846 17.6263 25.12 16.3287C26.3648 15.9876 29.3865 15.9508 30.6392 16.2616C31.0858 16.3724 31.4689 16.4454 31.4904 16.4238C31.5121 16.4022 31.3918 16.0548 31.2231 15.652C30.4631 13.8369 30.0162 11.6674 30.0162 9.79297C30.0162 7.48916 30.7747 4.52079 31.8416 2.64836C32.5066 1.48164 32.5444 1.02913 32.0257 0.448454L31.6611 0.0400833L28.1808 0.00769882C25.5722 -0.0166834 24.6254 0.0147009 24.4001 0.132736ZM38.9478 0.616379C37.3435 1.73596 36.1733 3.02772 35.3527 4.58518C33.5016 8.09759 33.6099 12.065 35.6513 15.5177C36.3187 16.6468 38.1787 18.5108 39.2337 19.1082L40.0067 19.5459L40.0435 35.8697L40.0802 52.1937L40.5472 53.1384C41.1096 54.2764 41.8337 54.9852 42.9961 55.5359C43.7514 55.8937 43.945 55.9316 45.0192 55.9316C46.0934 55.9316 46.2869 55.8937 47.0423 55.5359C48.2046 54.9852 48.9287 54.2764 49.4911 53.1384L49.9581 52.1937L49.9949 35.8697L50.0317 19.5459L50.8046 19.1082C51.8597 18.5108 53.7196 16.6468 54.3871 15.5177C57.0284 11.0502 56.3792 5.63774 52.7668 2.00779C51.8521 1.08852 50.3061 0.0172017 50.1377 0.185627C50.0725 0.250771 50.0092 2.82453 49.9907 6.15377L49.9581 12.0073L47.4887 12.9939L45.0192 13.9806L42.5497 12.9939L40.0802 12.0073L40.0177 6.09663C39.9756 2.1077 39.9122 0.171622 39.823 0.141863C39.7504 0.117606 39.3565 0.33117 38.9478 0.616379Z" fill="#848497"/>
</svg>
