<svg width="56" height="56" viewBox="0 0 56 56" fill="none" xmlns="http://www.w3.org/2000/svg">
<path fill-rule="evenodd" clip-rule="evenodd" d="M24.8156 0.171903C19.1821 1.12382 14.3313 4.72078 11.8475 9.78795C10.8329 11.8577 10.2723 13.7843 10.0704 15.895C9.99015 16.7348 9.9692 16.7794 9.4525 17.2113C9.15833 17.4573 8.79486 17.8882 8.64467 18.1691C8.37901 18.6661 8.3717 18.7797 8.3717 22.395C8.3717 26.464 8.37341 26.475 9.14688 27.3089C10.5038 28.7717 13.0795 28.409 13.9659 26.6303L14.2793 26.0013V22.395V18.7886L13.957 18.1418C13.7603 17.7471 13.4536 17.3699 13.1699 17.1739C12.6347 16.8041 12.6304 16.7749 12.8839 15.2116C13.9051 8.91483 18.9632 3.86923 25.2819 2.84447C33.399 1.52798 41.0985 7.06337 42.4672 15.1993C42.7301 16.7624 42.7244 16.8021 42.1831 17.1761C41.8878 17.3802 41.595 17.745 41.3898 18.1645L41.0644 18.8295L41.0838 22.6445C41.106 26.9973 41.2387 26.5033 39.8588 27.1991C38.5548 27.8567 36.8737 28.357 35.148 28.6014C34.3523 28.7142 34.3261 28.7091 33.9349 28.3656C33.4427 27.9334 32.8524 27.8329 31.1713 27.8951C29.7759 27.9468 29.426 28.088 29.0126 28.7659C28.7193 29.247 28.7024 30.0919 28.9766 30.5561C29.379 31.2374 29.9122 31.4087 31.631 31.4087C33.2577 31.4087 33.4655 31.357 34.073 30.8018C34.3742 30.5265 34.6271 30.4425 35.5134 30.3234C37.7537 30.0223 40.1775 29.1963 41.7095 28.2118C42.401 27.7676 42.4042 27.7669 42.8058 27.9726C43.404 28.2791 44.7733 28.2483 45.401 27.9143C45.9695 27.6117 46.4384 27.1354 46.7574 26.5364C46.9646 26.1472 46.9845 25.7862 46.9845 22.395C46.9845 18.7924 46.9763 18.6646 46.7146 18.1752C46.5662 17.8977 46.2036 17.4592 45.9089 17.2007L45.3732 16.7309L45.2294 15.4948C44.3246 7.71967 38.2525 1.43187 30.4224 0.161915C29.0658 -0.0581901 26.1464 -0.0529523 24.8156 0.171903ZM26.3382 5.64128C26.2377 5.66551 25.7475 5.75212 25.2488 5.83349C21.2332 6.4893 18.1238 9.19402 16.7879 13.1935C16.239 14.8371 16.0739 16.2175 16.1469 18.558C16.2849 22.9927 17.5848 26.4597 20.6312 30.519C21.164 31.229 21.678 31.9607 21.7733 32.145C22.3349 33.231 22.2214 34.5217 21.4935 35.3274C20.9383 35.942 20.3451 36.285 18.7049 36.94C16.343 37.8833 12.7571 39.8042 10.3378 41.4222C8.90522 42.3803 7.27081 44.017 6.74717 45.0181C6.28138 45.9087 6.00098 47.1094 6 48.218C5.99878 49.6898 6.47347 50.8806 7.48982 51.9553C9.59745 54.1838 13.96 55.4498 21.0842 55.9007C24.1965 56.0978 34.4305 55.9821 36.7925 55.7233C44.0286 54.9302 47.6551 53.4527 48.9206 50.7822C49.2861 50.0109 49.2987 49.9293 49.2961 48.3398C49.2931 46.4517 49.142 45.8021 48.4195 44.5709C47.0355 42.2127 43.422 39.8424 37.9267 37.6883C35.2017 36.6202 34.0276 35.9053 33.5749 35.0385C33.4749 34.8471 33.403 34.3548 33.403 33.8614V33.0131L31.4237 32.9708C29.1757 32.9227 28.8266 32.8141 28.0076 31.9075C26.5251 30.2665 26.9514 27.7892 28.9005 26.7191L29.5661 26.3537H31.6368C33.6773 26.3537 33.7163 26.3587 34.3095 26.6932C34.9554 27.0574 34.9384 27.0574 36.4828 26.6995C37.4145 26.4837 37.4058 26.4939 38.037 24.8626C39.5605 20.9255 39.7946 16.7471 38.6883 13.2385C38.1124 11.4121 37.4007 10.2034 36.0902 8.82628C34.7414 7.40894 32.945 6.40659 30.8152 5.88306C30.1215 5.71253 26.7876 5.53238 26.3382 5.64128Z" fill="#848497"/>
</svg>
