<svg width="56" height="56" viewBox="0 0 56 56" fill="none" xmlns="http://www.w3.org/2000/svg">
<path fill-rule="evenodd" clip-rule="evenodd" d="M25.9872 0.105647C22.5377 0.43225 19.8466 1.71535 18.2786 3.78102C16.526 6.09 15.8532 9.03916 15.8368 14.4851C15.8286 17.2284 15.9313 18.1959 16.4177 19.9551C17.3909 23.4745 19.5661 26.481 22.5942 28.4917C24.9602 30.0628 27.3424 30.7954 29.1792 30.517C31.8575 30.111 34.7269 28.4541 36.9073 26.0546C38.9158 23.8442 40.0704 21.4147 40.6629 18.1517C40.9124 16.7785 40.9121 12.5305 40.6625 10.326C40.1559 5.85271 38.7195 3.25292 35.8134 1.54975C33.7217 0.324003 29.7879 -0.254119 25.9872 0.105647ZM31.1579 5.26923C31.7743 5.41075 32.3098 5.55763 32.3478 5.59561C32.4173 5.66511 31.6794 7.6233 31.5221 7.78671C31.4758 7.83476 30.9426 7.77325 30.3371 7.6499C29.7317 7.52644 28.8331 7.42553 28.3404 7.42553C27.8476 7.42553 26.949 7.52644 26.3436 7.6499C25.7382 7.77325 25.2049 7.83476 25.1586 7.78671C25.1122 7.73856 24.8908 7.23858 24.6666 6.67567C24.3497 5.88018 24.2904 5.63271 24.4004 5.56464C24.5318 5.48353 26.3303 5.08798 27.0817 4.97491C27.8501 4.85944 30.0711 5.01968 31.1579 5.26923ZM31.0567 11.033C32.7435 11.4472 34.0364 12.1527 35.8288 13.6369C36.7233 14.3776 36.9862 14.5399 37.2919 14.5399C37.7735 14.5399 38.2126 14.2205 38.6978 13.5171L39.0872 12.9528L39.0289 15.0871C38.9473 18.0733 38.6345 19.6113 37.7028 21.6069C36.4246 24.3447 34.0685 26.7022 31.3592 27.9539C30.3603 28.4154 29.0519 28.7685 28.3404 28.7685C26.4494 28.7685 23.6036 27.3137 21.6009 25.323C20.4621 24.191 19.6417 23.0289 18.9779 21.6069C18.0463 19.6113 17.7334 18.0733 17.6518 15.0871L17.5936 12.9528L17.9829 13.5171C18.4681 14.2205 18.9072 14.5399 19.3888 14.5399C19.6945 14.5399 19.9574 14.3776 20.8519 13.6369C22.9549 11.8955 24.4463 11.1742 26.6782 10.8194C27.6648 10.6625 30.0147 10.7771 31.0567 11.033ZM18.4898 30.3691C12.4414 33.6524 9.87988 35.1376 9.13518 35.7932C7.60045 37.144 5.93001 41.2545 5.18289 45.5186L5 46.5625L5.30198 47.1604C5.67225 47.8932 7.10606 49.3444 8.09189 49.9838C8.48318 50.2377 9.33766 50.7195 9.99076 51.0546L11.1783 51.664L11.4683 51.3936C11.6279 51.245 11.871 51.0654 12.0084 50.9947C12.2532 50.8687 12.2477 50.8589 11.7393 50.5161C10.6387 49.7741 10.3715 48.4413 11.0628 47.1423C11.5073 46.3073 12.7292 45.0531 13.5954 44.5429C15.8628 43.2074 18.4776 43.1364 20.843 44.3458C21.5093 44.6865 21.9476 45.0237 22.677 45.7561L23.6355 46.7185L28.3685 46.7174L33.1015 46.7164L33.7922 45.9519C34.5422 45.1221 35.1112 44.6887 36.0875 44.2043C38.2444 43.1342 40.9128 43.2634 43.0853 44.5429C43.9508 45.0528 45.1734 46.3073 45.6172 47.1411C46.0373 47.9305 46.106 48.7729 45.8077 49.4757C45.6204 49.9168 44.9616 50.6141 44.6341 50.7181C44.462 50.7727 44.5212 50.8535 44.9942 51.2089L45.5604 51.6343L46.7189 51.0399C47.3561 50.7128 48.1975 50.2377 48.5888 49.9838C49.572 49.346 51.0086 47.8931 51.3769 47.164C51.6699 46.5839 51.674 46.5497 51.548 45.7411C51.3544 44.4993 50.6214 41.5419 50.2304 40.4251C49.7906 39.169 48.9151 37.4142 48.3636 36.6831C47.5951 35.6644 46.9236 35.2007 43.171 33.0972C39.1512 30.8439 36.0423 29.2063 35.7846 29.2063C35.6443 29.2063 35.0665 29.5062 34.5006 29.8728C33.3244 30.6347 32.4568 31.0502 31.3249 31.394C30.8895 31.5262 30.4216 31.7231 30.2851 31.8317C30.1176 31.9648 29.7697 32.7447 29.216 34.2281C28.7645 35.4376 28.3705 36.4271 28.3404 36.4271C28.3103 36.4271 27.9162 35.4376 27.4648 34.2281C26.911 32.7447 26.5631 31.9648 26.3956 31.8317C26.2591 31.7231 25.7912 31.5262 25.3558 31.394C24.2239 31.0502 23.3563 30.6347 22.1801 29.8728C21.6143 29.5062 21.0327 29.2073 20.8877 29.2084C20.7427 29.2096 19.6636 29.7319 18.4898 30.3691ZM16.246 45.7778C14.9767 46.0914 13.8998 46.8175 13.2025 47.8301C12.5322 48.8032 12.5209 48.7981 15.3209 48.7981C17.1132 48.7981 17.7326 48.8323 17.7981 48.9349C17.9166 49.1203 17.984 51.5136 17.8916 52.2528L17.8173 52.8478H15.4306C12.595 52.8478 12.5707 52.857 13.1269 53.7237C13.8277 54.8159 15.1067 55.654 16.4934 55.9298C17.4083 56.1118 18.706 55.9273 19.6638 55.479C20.4929 55.0911 21.4818 54.1476 21.9344 53.3129L22.2459 52.7383H28.348H34.4501L34.6905 53.2348C35.2477 54.386 36.5734 55.438 37.9465 55.8188C40.062 56.4054 42.3936 55.532 43.5587 53.7163C44.1031 52.8678 44.0768 52.8574 41.2791 52.8225L38.9181 52.7931L38.8271 52.4647C38.7092 52.0388 38.7092 49.607 38.8271 49.1812L38.9181 48.8528L41.2791 48.8234C44.1347 48.7877 44.1458 48.7828 43.4812 47.8348C42.9092 47.0191 41.9052 46.262 40.9645 45.9371C40.0504 45.6216 38.6886 45.6012 37.7273 45.8888C36.5207 46.2495 35.307 47.2619 34.7317 48.3876L34.4659 48.9075H28.345H22.2239L21.8689 48.2416C20.8629 46.3539 18.3575 45.2562 16.246 45.7778Z" fill="#848497"/>
</svg>
