<svg width="15" height="16" viewBox="0 0 15 16" fill="none" xmlns="http://www.w3.org/2000/svg">
<path d="M15 11.6833V14.63C15.0001 14.841 14.9202 15.0441 14.7763 15.1985C14.6325 15.3528 14.4355 15.4469 14.225 15.4617C13.8608 15.4867 13.5633 15.5 13.3333 15.5C5.96917 15.5 0 9.53083 0 2.16667C0 1.93667 0.0125 1.63917 0.0383333 1.275C0.053102 1.06454 0.147151 0.867509 0.301503 0.723674C0.455855 0.579839 0.659019 0.499905 0.87 0.5H3.81667C3.92003 0.499896 4.01975 0.538216 4.09644 0.607517C4.17313 0.676818 4.22133 0.772152 4.23167 0.875C4.25083 1.06667 4.26833 1.21917 4.285 1.335C4.45061 2.49077 4.79 3.61486 5.29167 4.66917C5.37083 4.83583 5.31917 5.035 5.16917 5.14167L3.37083 6.42667C4.47038 8.98871 6.51212 11.0305 9.07417 12.13L10.3575 10.335C10.41 10.2617 10.4865 10.2091 10.5737 10.1864C10.661 10.1637 10.7535 10.1723 10.835 10.2108C11.8892 10.7116 13.013 11.0501 14.1683 11.215C14.2842 11.2317 14.4367 11.25 14.6267 11.2683C14.7294 11.2789 14.8245 11.3271 14.8936 11.4038C14.9628 11.4805 15.001 11.5801 15.0008 11.6833H15Z" fill="white"/>
</svg>
